# xmcd CD database file
#
# Track frame offsets:
#	150
#	4060
#	23300
#	32185
#	41989
#	50955
#	60557
#	67977
#	79190
#	102385
#	115162
#	130467
#	137285
#	144187
#	146290
#	165800
#	182957
#
# Disc length: 2678 seconds
#
# Revision: 0
# Processed by: cddbd v1.5.2PL0 Copyright (c) Steve Scherf et al.
# Submitted via: CDex 1.51
#
DISCID=e10a7411
DTITLE=Jerry Coker - Elements of The Jazz Language 1
DYEAR=1900
DGENRE=Jazz
TTITLE0=# 4-11
TTITLE1=# 38-65
TTITLE2=# 93-103
TTITLE3=# 120-134
TTITLE4=# 139-153
TTITLE5=# 164-177
TTITLE6=# 185-193
TTITLE7=# 196-212
TTITLE8=# 219-238
TTITLE9=# 249-267
TTITLE10=# 273-291
TTITLE11=# 294-303
TTITLE12=# 306-315
TTITLE13=# Tuning Tones
TTITLE14=Homesick Hoosier
TTITLE15=Urbane Blues
TTITLE16=Stellar
EXTD=
EXTT0=
EXTT1=
EXTT2=
EXTT3=
EXTT4=
EXTT5=
EXTT6=
EXTT7=
EXTT8=
EXTT9=
EXTT10=
EXTT11=
EXTT12=
EXTT13=
EXTT14=
EXTT15=
EXTT16=
PLAYORDER=
